<svg width="262" height="40" viewBox="0 0 262 40" fill="none" xmlns="http://www.w3.org/2000/svg">
<path fill-rule="evenodd" clip-rule="evenodd" d="M2.32174 14.6425L0 16.0082C0 22.216 0 28.4263 0 34.7026L2.32174 36L13.9206 29.3128L9.27954 26.6517L4.63854 29.3128C4.63854 26.6517 4.63854 23.9908 4.63854 21.3302L25.4504 33.3381L30.0914 30.677L2.32174 14.6425ZM23.1311 23.9908L30.0914 19.9655C20.8118 14.6425 11.5988 9.32052 2.32174 4L0 5.29396V10.6864L2.32174 9.32052C8.53028 12.8689 14.6698 16.4171 20.8118 19.9655L18.4926 21.3302L23.1311 23.9908Z" fill="url(#paint0_linear_654_224)"/>
<path d="M62.9668 31H60.7168V27.625C60.7168 27.0781 60.7051 26.6094 60.6816 26.2188C60.666 25.8203 60.5996 25.4805 60.4824 25.1992C60.373 24.918 60.1973 24.6914 59.9551 24.5195C59.7129 24.3477 59.3691 24.2148 58.9238 24.1211C58.4785 24.0273 57.9121 23.9648 57.2246 23.9336C56.5449 23.8945 55.7051 23.875 54.7051 23.875H44.5918V31H42.3418V13H55.0801C56.4551 13 57.6113 13.0508 58.5488 13.1523C59.4941 13.2461 60.2715 13.3906 60.8809 13.5859C61.498 13.7812 61.9707 14.0234 62.2988 14.3125C62.6348 14.6016 62.877 14.9414 63.0254 15.332C63.1816 15.7227 63.2715 16.1602 63.2949 16.6445C63.3262 17.1289 63.3418 17.6641 63.3418 18.25C63.3418 19 63.2871 19.6602 63.1777 20.2305C63.0762 20.793 62.9004 21.2734 62.6504 21.6719C62.4004 22.0703 62.0684 22.3906 61.6543 22.6328C61.2402 22.8672 60.7207 23.0312 60.0957 23.125C60.7207 23.2188 61.2207 23.3828 61.5957 23.6172C61.9707 23.8516 62.2598 24.1562 62.4629 24.5312C62.666 24.9062 62.7988 25.3516 62.8613 25.8672C62.9316 26.3828 62.9668 26.9688 62.9668 27.625V31ZM44.5918 22H55.0801C56.0801 22 56.9199 21.9844 57.5996 21.9531C58.2871 21.9141 58.8535 21.8477 59.2988 21.7539C59.7441 21.6602 60.0879 21.5273 60.3301 21.3555C60.5723 21.1836 60.748 20.957 60.8574 20.6758C60.9746 20.3945 61.041 20.0586 61.0566 19.668C61.0801 19.2695 61.0918 18.7969 61.0918 18.25C61.0918 17.7422 61.0801 17.3047 61.0566 16.9375C61.041 16.5703 60.9746 16.2617 60.8574 16.0117C60.748 15.7617 60.5723 15.5625 60.3301 15.4141C60.0879 15.2656 59.7441 15.1523 59.2988 15.0742C58.8535 14.9883 58.2871 14.9336 57.5996 14.9102C56.9199 14.8867 56.0801 14.875 55.0801 14.875H44.5918V22ZM88.1035 13V22C88.1035 23.0625 88.0879 24.0312 88.0566 24.9062C88.0332 25.7812 87.9434 26.5664 87.7871 27.2617C87.6387 27.957 87.4004 28.5625 87.0723 29.0781C86.7441 29.5938 86.2754 30.0234 85.666 30.3672C85.0566 30.7031 84.2793 30.9531 83.334 31.1172C82.3965 31.2891 81.2402 31.375 79.8652 31.375H74.5918C73.2168 31.375 72.0566 31.2891 71.1113 31.1172C70.1738 30.9531 69.4004 30.7031 68.791 30.3672C68.1816 30.0234 67.709 29.5938 67.373 29.0781C67.0449 28.5625 66.8027 27.957 66.6465 27.2617C66.498 26.5664 66.4121 25.7812 66.3887 24.9062C66.3652 24.0312 66.3535 23.0625 66.3535 22V13H68.6035V22C68.6035 23.125 68.6113 24.0938 68.627 24.9062C68.6504 25.7109 68.7168 26.3906 68.8262 26.9453C68.9355 27.5 69.1074 27.9453 69.3418 28.2812C69.584 28.6172 69.9277 28.875 70.373 29.0547C70.8184 29.2344 71.3809 29.3555 72.0605 29.418C72.748 29.4727 73.5918 29.5 74.5918 29.5H79.8652C80.8574 29.5 81.6973 29.4727 82.3848 29.418C83.0723 29.3555 83.6348 29.2344 84.0723 29.0547C84.5176 28.875 84.8613 28.6172 85.1035 28.2812C85.3457 27.9453 85.5215 27.5 85.6309 26.9453C85.748 26.3906 85.8145 25.7109 85.8301 24.9062C85.8457 24.0938 85.8535 23.125 85.8535 22L85.8418 13H88.1035ZM91.8652 31V13H106.877C108.002 13 108.908 13.0938 109.596 13.2812C110.283 13.4609 110.811 13.7305 111.178 14.0898C111.553 14.4414 111.803 14.8828 111.928 15.4141C112.053 15.9453 112.115 16.5547 112.115 17.2422C112.115 17.7422 112.072 18.1836 111.986 18.5664C111.9 18.9492 111.787 19.2812 111.646 19.5625C111.506 19.8438 111.346 20.082 111.166 20.2773C110.986 20.4648 110.803 20.6211 110.615 20.7461C110.178 21.043 109.678 21.2109 109.115 21.25C109.818 21.2891 110.443 21.4609 110.99 21.7656C111.225 21.8984 111.451 22.0664 111.67 22.2695C111.896 22.4648 112.096 22.7109 112.268 23.0078C112.447 23.2969 112.592 23.6406 112.701 24.0391C112.811 24.4297 112.865 24.8828 112.865 25.3984C112.865 26.0234 112.834 26.5977 112.771 27.1211C112.717 27.6367 112.6 28.1016 112.42 28.5156C112.24 28.9297 111.982 29.293 111.646 29.6055C111.311 29.918 110.861 30.1797 110.299 30.3906C109.744 30.5938 109.061 30.7461 108.248 30.8477C107.443 30.9492 106.479 31 105.354 31H91.8652ZM104.604 29.125C105.479 29.125 106.236 29.1133 106.877 29.0898C107.518 29.0586 108.061 29 108.506 28.9141C108.951 28.8203 109.311 28.6914 109.584 28.5273C109.857 28.3555 110.068 28.1328 110.217 27.8594C110.373 27.5781 110.479 27.2383 110.533 26.8398C110.588 26.4414 110.615 25.9609 110.615 25.3984C110.615 24.9609 110.588 24.582 110.533 24.2617C110.479 23.9336 110.373 23.6602 110.217 23.4414C110.068 23.2148 109.857 23.0352 109.584 22.9023C109.311 22.7617 108.951 22.6523 108.506 22.5742C108.061 22.4961 107.518 22.4453 106.877 22.4219C106.236 22.3906 105.479 22.375 104.604 22.375H94.1152V29.125H104.604ZM104.604 20.5C105.369 20.5 106.029 20.4844 106.584 20.4531C107.139 20.4219 107.611 20.3633 108.002 20.2773C108.393 20.1914 108.709 20.0742 108.951 19.9258C109.193 19.7695 109.381 19.5703 109.514 19.3281C109.654 19.0859 109.748 18.7969 109.795 18.4609C109.842 18.1172 109.865 17.7109 109.865 17.2422C109.865 16.7422 109.811 16.3359 109.701 16.0234C109.592 15.7109 109.396 15.4727 109.115 15.3086C108.834 15.1367 108.451 15.0234 107.967 14.9688C107.49 14.9062 106.877 14.875 106.127 14.875H94.1152V20.5H104.604ZM115.865 13H118.865L127.115 21.8125L135.365 13H138.365L128.24 23.5V31H125.99V23.5L115.865 13Z" fill="url(#paint1_linear_654_224)"/>
<path d="M153.74 20.875C154.975 20.875 156.033 20.9258 156.916 21.0273C157.799 21.1289 158.541 21.2812 159.143 21.4844C159.752 21.6797 160.236 21.9258 160.596 22.2227C160.955 22.5195 161.232 22.8594 161.428 23.2422C161.623 23.6172 161.748 24.0391 161.803 24.5078C161.865 24.9766 161.896 25.4844 161.896 26.0312C161.896 26.5781 161.846 27.0938 161.744 27.5781C161.65 28.0547 161.479 28.4922 161.229 28.8906C160.979 29.2891 160.639 29.6445 160.209 29.957C159.779 30.2695 159.232 30.5352 158.568 30.7539C157.904 30.9727 157.104 31.1367 156.166 31.2461C155.236 31.3633 154.146 31.4219 152.896 31.4219H149.896C148.771 31.4219 147.787 31.3789 146.943 31.293C146.1 31.207 145.373 31.0781 144.764 30.9062C144.154 30.7266 143.65 30.5039 143.252 30.2383C142.854 29.9648 142.533 29.6484 142.291 29.2891C142.057 28.9219 141.893 28.5078 141.799 28.0469C141.705 27.5781 141.658 27.0625 141.658 26.5H143.908C143.908 27.2031 144.01 27.7539 144.213 28.1523C144.416 28.5508 144.752 28.8516 145.221 29.0547C145.689 29.25 146.303 29.375 147.061 29.4297C147.826 29.4766 148.771 29.5 149.896 29.5H152.896C154.209 29.5 155.299 29.4375 156.166 29.3125C157.033 29.1875 157.725 28.9883 158.24 28.7148C158.756 28.4414 159.119 28.0859 159.33 27.6484C159.541 27.2031 159.646 26.6641 159.646 26.0312C159.646 25.3984 159.572 24.8711 159.424 24.4492C159.283 24.0273 158.998 23.6914 158.568 23.4414C158.146 23.1914 157.549 23.0156 156.775 22.9141C156.002 22.8047 154.99 22.75 153.74 22.75H150.646C149.271 22.75 148.092 22.6992 147.107 22.5977C146.131 22.4961 145.311 22.3516 144.646 22.1641C143.982 21.9688 143.451 21.7305 143.053 21.4492C142.654 21.1602 142.35 20.832 142.139 20.4648C141.936 20.0977 141.803 19.6914 141.74 19.2461C141.678 18.793 141.646 18.3047 141.646 17.7812C141.646 17.2344 141.693 16.7266 141.787 16.2578C141.889 15.7891 142.072 15.3672 142.338 14.9922C142.604 14.6094 142.967 14.2695 143.428 13.9727C143.889 13.6758 144.479 13.4297 145.197 13.2344C145.924 13.0312 146.795 12.8789 147.811 12.7773C148.826 12.6758 150.021 12.625 151.396 12.625H153.646C154.771 12.625 155.756 12.668 156.6 12.7539C157.443 12.832 158.17 12.9609 158.779 13.1406C159.389 13.3125 159.893 13.5312 160.291 13.7969C160.697 14.0547 161.018 14.3672 161.252 14.7344C161.494 15.0938 161.662 15.5039 161.756 15.9648C161.85 16.4258 161.896 16.9375 161.896 17.5H159.646C159.646 16.7969 159.545 16.2461 159.342 15.8477C159.139 15.4492 158.803 15.1523 158.334 14.957C157.865 14.7539 157.248 14.6289 156.482 14.582C155.717 14.5273 154.771 14.5 153.646 14.5H151.396C149.896 14.5 148.662 14.5547 147.693 14.6641C146.725 14.7656 145.959 14.9414 145.396 15.1914C144.834 15.4414 144.443 15.7773 144.225 16.1992C144.006 16.6211 143.896 17.1484 143.896 17.7812C143.896 18.1719 143.924 18.5195 143.979 18.8242C144.033 19.1289 144.143 19.3984 144.307 19.6328C144.479 19.8594 144.717 20.0508 145.021 20.207C145.326 20.3633 145.729 20.4922 146.229 20.5938C146.729 20.6953 147.338 20.7695 148.057 20.8164C148.783 20.8555 149.646 20.875 150.646 20.875H153.74ZM184.385 18.625C184.385 17.6875 184.283 16.9453 184.08 16.3984C183.877 15.8516 183.541 15.4375 183.072 15.1562C182.604 14.875 181.986 14.6953 181.221 14.6172C180.463 14.5391 179.521 14.5 178.396 14.5H173.135C172.135 14.5 171.291 14.5312 170.604 14.5938C169.924 14.6484 169.361 14.7656 168.916 14.9453C168.471 15.125 168.127 15.3828 167.885 15.7188C167.643 16.0547 167.467 16.5 167.357 17.0547C167.248 17.6094 167.186 18.293 167.17 19.1055C167.154 19.9102 167.146 20.875 167.146 22C167.146 23.125 167.154 24.0938 167.17 24.9062C167.193 25.7109 167.26 26.3906 167.369 26.9453C167.479 27.5 167.65 27.9453 167.885 28.2812C168.127 28.6172 168.471 28.875 168.916 29.0547C169.361 29.2344 169.924 29.3555 170.604 29.418C171.291 29.4727 172.135 29.5 173.135 29.5H178.396C179.271 29.5 180.025 29.4766 180.658 29.4297C181.291 29.3828 181.83 29.2969 182.275 29.1719C182.721 29.0469 183.08 28.875 183.354 28.6562C183.627 28.4375 183.838 28.1641 183.986 27.8359C184.143 27.5 184.248 27.1016 184.303 26.6406C184.357 26.1719 184.385 25.625 184.385 25H186.635C186.635 25.75 186.588 26.4297 186.494 27.0391C186.4 27.6406 186.232 28.1797 185.99 28.6562C185.756 29.125 185.439 29.5312 185.041 29.875C184.643 30.2188 184.139 30.5039 183.529 30.7305C182.92 30.9492 182.193 31.1094 181.35 31.2109C180.506 31.3203 179.521 31.375 178.396 31.375H173.135C171.76 31.375 170.6 31.2891 169.654 31.1172C168.717 30.9531 167.943 30.7031 167.334 30.3672C166.725 30.0234 166.252 29.5938 165.916 29.0781C165.588 28.5625 165.346 27.957 165.189 27.2617C165.041 26.5664 164.955 25.7812 164.932 24.9062C164.908 24.0312 164.896 23.0625 164.896 22C164.896 20.9375 164.908 19.9688 164.932 19.0938C164.955 18.2188 165.041 17.4336 165.189 16.7383C165.346 16.043 165.588 15.4375 165.916 14.9219C166.252 14.4062 166.725 13.9805 167.334 13.6445C167.943 13.3008 168.717 13.0469 169.654 12.8828C170.6 12.7109 171.76 12.625 173.135 12.625H178.396C179.521 12.625 180.506 12.6797 181.35 12.7891C182.193 12.8906 182.92 13.0508 183.529 13.2695C184.139 13.4805 184.643 13.75 185.041 14.0781C185.439 14.4062 185.756 14.793 185.99 15.2383C186.232 15.6836 186.4 16.1875 186.494 16.75C186.588 17.3125 186.635 17.9375 186.635 18.625H184.385ZM204.658 12.625C206.033 12.625 207.189 12.7109 208.127 12.8828C209.072 13.0469 209.85 13.3008 210.459 13.6445C211.068 13.9805 211.537 14.4062 211.865 14.9219C212.193 15.4375 212.432 16.043 212.58 16.7383C212.736 17.4336 212.826 18.2188 212.85 19.0938C212.881 19.9688 212.896 20.9375 212.896 22C212.896 23.0625 212.881 24.0312 212.85 24.9062C212.826 25.7812 212.736 26.5664 212.58 27.2617C212.432 27.957 212.193 28.5625 211.865 29.0781C211.537 29.5938 211.068 30.0234 210.459 30.3672C209.85 30.7031 209.072 30.9531 208.127 31.1172C207.189 31.2891 206.033 31.375 204.658 31.375H197.885C196.51 31.375 195.35 31.2891 194.404 31.1172C193.467 30.9531 192.693 30.7031 192.084 30.3672C191.475 30.0234 191.002 29.5938 190.666 29.0781C190.338 28.5625 190.096 27.957 189.939 27.2617C189.791 26.5664 189.705 25.7812 189.682 24.9062C189.658 24.0312 189.646 23.0625 189.646 22C189.646 20.9375 189.658 19.9688 189.682 19.0938C189.705 18.2188 189.791 17.4336 189.939 16.7383C190.096 16.043 190.338 15.4375 190.666 14.9219C191.002 14.4062 191.475 13.9805 192.084 13.6445C192.693 13.3008 193.467 13.0469 194.404 12.8828C195.35 12.7109 196.51 12.625 197.885 12.625H204.658ZM204.658 29.5C205.65 29.5 206.486 29.4727 207.166 29.418C207.854 29.3555 208.42 29.2344 208.865 29.0547C209.311 28.875 209.654 28.6172 209.896 28.2812C210.139 27.9453 210.314 27.5 210.424 26.9453C210.533 26.3906 210.596 25.7109 210.611 24.9062C210.635 24.0938 210.646 23.125 210.646 22C210.646 20.875 210.635 19.9102 210.611 19.1055C210.596 18.293 210.533 17.6094 210.424 17.0547C210.314 16.5 210.139 16.0547 209.896 15.7188C209.654 15.3828 209.311 15.125 208.865 14.9453C208.428 14.7656 207.865 14.6484 207.178 14.5938C206.498 14.5312 205.658 14.5 204.658 14.5H197.885C196.885 14.5 196.041 14.5312 195.354 14.5938C194.674 14.6484 194.111 14.7656 193.666 14.9453C193.221 15.125 192.877 15.3828 192.635 15.7188C192.393 16.0547 192.217 16.5 192.107 17.0547C191.998 17.6094 191.936 18.293 191.92 19.1055C191.904 19.9102 191.896 20.875 191.896 22C191.896 23.125 191.904 24.0938 191.92 24.9062C191.943 25.7109 192.01 26.3906 192.119 26.9453C192.229 27.5 192.4 27.9453 192.635 28.2812C192.877 28.6172 193.221 28.875 193.666 29.0547C194.111 29.2344 194.674 29.3555 195.354 29.418C196.041 29.4727 196.885 29.5 197.885 29.5H204.658ZM237.271 31H235.021V27.625C235.021 27.0781 235.01 26.6094 234.986 26.2188C234.971 25.8203 234.904 25.4805 234.787 25.1992C234.678 24.918 234.502 24.6914 234.26 24.5195C234.018 24.3477 233.674 24.2148 233.229 24.1211C232.783 24.0273 232.217 23.9648 231.529 23.9336C230.85 23.8945 230.01 23.875 229.01 23.875H218.896V31H216.646V13H229.385C230.76 13 231.916 13.0508 232.854 13.1523C233.799 13.2461 234.576 13.3906 235.186 13.5859C235.803 13.7812 236.275 14.0234 236.604 14.3125C236.939 14.6016 237.182 14.9414 237.33 15.332C237.486 15.7227 237.576 16.1602 237.6 16.6445C237.631 17.1289 237.646 17.6641 237.646 18.25C237.646 19 237.592 19.6602 237.482 20.2305C237.381 20.793 237.205 21.2734 236.955 21.6719C236.705 22.0703 236.373 22.3906 235.959 22.6328C235.545 22.8672 235.025 23.0312 234.4 23.125C235.025 23.2188 235.525 23.3828 235.9 23.6172C236.275 23.8516 236.564 24.1562 236.768 24.5312C236.971 24.9062 237.104 25.3516 237.166 25.8672C237.236 26.3828 237.271 26.9688 237.271 27.625V31ZM218.896 22H229.385C230.385 22 231.225 21.9844 231.904 21.9531C232.592 21.9141 233.158 21.8477 233.604 21.7539C234.049 21.6602 234.393 21.5273 234.635 21.3555C234.877 21.1836 235.053 20.957 235.162 20.6758C235.279 20.3945 235.346 20.0586 235.361 19.668C235.385 19.2695 235.396 18.7969 235.396 18.25C235.396 17.7422 235.385 17.3047 235.361 16.9375C235.346 16.5703 235.279 16.2617 235.162 16.0117C235.053 15.7617 234.877 15.5625 234.635 15.4141C234.393 15.2656 234.049 15.1523 233.604 15.0742C233.158 14.9883 232.592 14.9336 231.904 14.9102C231.225 14.8867 230.385 14.875 229.385 14.875H218.896V22ZM241.396 31V13H259.396V14.875H243.646V20.875H258.646V22.75H243.646V29.125H259.396V31H241.396Z" fill="#F5F7F3"/>
<defs>
<linearGradient id="paint0_linear_654_224" x1="0" y1="20" x2="30.0914" y2="20" gradientUnits="userSpaceOnUse">
<stop stop-color="#92FE9D"/>
<stop offset="1" stop-color="#00C9FF"/>
<stop offset="1" stop-color="#00C9FF"/>
</linearGradient>
<linearGradient id="paint1_linear_654_224" x1="40.0918" y1="20" x2="261.092" y2="20" gradientUnits="userSpaceOnUse">
<stop stop-color="#92FE9D"/>
<stop offset="1" stop-color="#00C9FF"/>
<stop offset="1" stop-color="#00C9FF"/>
</linearGradient>
</defs>
</svg>
